<?xml version="1.0" encoding="UTF-8" standalone="no"?>
<svg
   xmlns:dc="http://purl.org/dc/elements/1.1/"
   xmlns:cc="http://creativecommons.org/ns#"
   xmlns:rdf="http://www.w3.org/1999/02/22-rdf-syntax-ns#"
   xmlns:svg="http://www.w3.org/2000/svg"
   xmlns="http://www.w3.org/2000/svg"
   id="svg1163"
   xml:space="preserve"
   style="enable-background:new 0 0 657.6 657.6;"
   viewBox="0 0 657.6 657.6"
   y="0px"
   x="0px"
   version="1.1"><metadata
   id="metadata1169"><rdf:RDF><cc:Work
       rdf:about=""><dc:format>image/svg+xml</dc:format><dc:type
         rdf:resource="http://purl.org/dc/dcmitype/StillImage" /><dc:title></dc:title></cc:Work></rdf:RDF></metadata><defs
   id="defs1167" />
<style
   id="style1147"
   type="text/css">
	.st0{display:none;}
	.st1{display:inline;fill:#00AEEF;}
	.st2{fill:#00AEEF;}
	.st3{fill:#FFFFFF;}
</style>
<g
   class="st0"
   id="Layer_2">
	<rect
   height="657.6"
   width="657.6"
   class="st1"
   y="0"
   x="0"
   id="XMLID_3_" />
</g>
<g
   id="Layer_3">
</g>
<g
   id="Layer_1">
	<g
   id="XMLID_4_">
		
		<g
   style="stroke:none;stroke-opacity:1"
   id="XMLID_1_">
			<g
   style="stroke:none;stroke-opacity:1"
   id="XMLID_13_">
				<path
   style="stroke:none;stroke-opacity:1"
   d="M478.9,455.2c-11.4,0-21.4-7.7-24.4-18.7l-24.2-90.4c-2.3-8.4-9.9-14.3-18.6-14.3      c-1.7,0-3.4,0.2-5,0.7l-79.4,21.3c-5,1.3-9.1,4.5-11.7,9c-2.6,4.4-3.3,9.6-1.9,14.6l11.1,41.3c1.8,6.7,0.8,13.6-2.8,19.5      c-3.6,6-9.4,10.1-16.2,11.6l-0.5,0.1c-1.8,0.4-3.6,0.6-5.4,0.6c-11.4,0-21.4-7.7-24.4-18.7l-44.3-165.3      c-3.5-13.1,3.9-26.5,16.8-30.6c0.4-0.1,0.8-0.2,1.2-0.4c2.3-0.7,4.6-1,6.9-1c11.3,0,21.3,7.7,24.2,18.8l10.9,40.5      c2.2,8.4,9.9,14.3,18.6,14.3c1.7,0,3.4-0.2,5-0.7l79.4-21.3c10.2-2.7,16.3-13.3,13.6-23.5l-24-89.4      c-3.6-13.4,4.4-27.3,17.8-30.9l0.4-0.1c2.1-0.6,4.3-0.9,6.5-0.9c11.4,0,21.4,7.7,24.4,18.7l70.6,263.3      c3.6,13.4-4.4,27.3-17.8,30.9l-0.4,0.1C483.3,454.9,481.1,455.2,478.9,455.2z"
   class="st3"
   id="XMLID_24_" />
				
			</g>
			<g
   style="stroke:none;stroke-opacity:1"
   id="XMLID_14_">
				<path
   style="stroke:none;stroke-opacity:1"
   d="M284.8,510.2c-19.9,0-37.7-4.9-54.3-14.9c-26.1-15.8-45-44.8-56.1-86.2l-19.3-72.2      c-5.3-19.9-7.5-38.8-6.4-56c1.1-17,5.2-32.4,12.2-45.6c7-13.2,16.9-24.7,29.3-34.1c12.5-9.5,27.8-16.7,45.4-21.4      c14-3.8,27.4-5.7,39.8-5.7c3.8,0,7.5,0.2,11.1,0.5c15.3,1.5,29.1,5.9,41.1,13.2c12,7.3,22.4,17.4,30.9,30.1      c4.3,6.4,8.2,13.5,11.5,21.1c2.9,6.6,2.8,14.2-0.4,20.8c-3.2,6.7-9.1,11.6-16.3,13.5l-0.8,0.2c-2.1,0.6-4.3,0.9-6.5,0.9      c-9.8,0-18.8-5.7-22.9-14.6c-1-2.1-2.1-4.3-3.2-6.3c-4.3-7.9-9.7-14.6-16.3-20.1c-6.7-5.6-14.9-9.5-24.3-11.6      c-3.7-0.8-7.6-1.2-11.7-1.2c-6.4,0-13.3,1-20.6,2.9c-11.1,3-20.3,7.8-27.4,14.3c-7,6.5-12.4,14.2-15.9,23      c-3.4,8.7-5.2,18.2-5.1,28.4c0,9.9,1.4,20,4.1,30l21.8,81.5c2.9,10.9,6.8,20.8,11.5,29.4c4.9,8.9,10.9,16.3,17.8,22      c7.2,5.9,15.6,9.8,25.1,11.5c3.3,0.6,6.7,0.9,10.3,0.9c6.6,0,13.9-1,21.4-3c12.6-3.4,22.6-8.2,29.9-14.3      c7.4-6.3,12.7-13.6,15.6-21.7c2.8-7.9,3.9-16.5,3.3-25.6c-0.2-2.3-0.4-4.7-0.7-7.1c-1.5-12.4,6.4-24.2,18.5-27.5l0.5-0.1      c2.2-0.6,4.4-0.9,6.6-0.9c12.7,0,23.5,9.5,25,22.1c3.1,25.7-0.6,48.2-11,66.8c-13.7,24.6-39.3,42.1-76,51.9      C309.4,508.4,296.6,510.2,284.8,510.2z"
   class="st3"
   id="XMLID_20_" />
				
			</g>
		</g>
		<path
   d="M394.5,38.9l-268.8,72c-7.7,2.1-13.7,8-15.7,15.7l-72,268.8c-2.1,7.7,0.1,15.9,5.8,21.5    l196.8,196.8c5.6,5.6,13.8,7.8,21.5,5.8l268.8-72c7.7-2.1,13.7-8,15.7-15.7l72-268.8c2.1-7.7-0.1-15.9-5.8-21.5L416,44.7    C410.3,39.1,402.2,36.9,394.5,38.9z M501.4,518.1l-228.7,61.3c-7.7,2.1-15.9-0.1-21.5-5.8L83.8,406.2c-5.6-5.6-7.8-13.8-5.8-21.5    L139.3,156c2.1-7.7,8-13.7,15.7-15.7L383.7,79c7.7-2.1,15.9,0.1,21.5,5.8l167.4,167.4c5.6,5.6,7.8,13.8,5.8,21.5l-61.3,228.7    C515.1,510.1,509.1,516.1,501.4,518.1z"
   class="st3"
   id="XMLID_29_" />
	</g>
</g>
</svg>